<svg width="5025" height="4809" viewBox="0 0 5025 4809" fill="none" xmlns="http://www.w3.org/2000/svg">
<circle cx="2612.43" cy="2669.53" r="2412.57" fill="#092340"/>
<circle cx="2619.56" cy="2676.67" r="1134.91" fill="#092340"/>
<circle cx="2412.57" cy="2412.57" r="2412.57" fill="#003E83"/>
<circle cx="2412.57" cy="2412.57" r="1786.35" stroke="#FF4829" stroke-width="453"/>
<circle cx="2419.71" cy="2419.71" r="1134.91" fill="#FF4829"/>
<circle cx="2419.71" cy="2405.43" r="522.865" stroke="#FFC619" stroke-width="339"/>
<path d="M2191.5 2469.5H2213.25V2491.25H2191.5V2469.5ZM2191.5 2491.25H2213.25V2513H2191.5V2491.25ZM2169.75 2491.25H2191.5V2513H2169.75V2491.25ZM2169.75 2469.5H2191.5V2491.25H2169.75V2469.5ZM2169.75 2447.75H2191.5V2469.5H2169.75V2447.75ZM2169.75 2426H2191.5V2447.75H2169.75V2426ZM2169.75 2404.25H2191.5V2426H2169.75V2404.25ZM2169.75 2382.5H2191.5V2404.25H2169.75V2382.5ZM2169.75 2360.75H2191.5V2382.5H2169.75V2360.75ZM2169.75 2339H2191.5V2360.75H2169.75V2339ZM2191.5 2360.75H2213.25V2382.5H2191.5V2360.75ZM2191.5 2382.5H2213.25V2404.25H2191.5V2382.5ZM2191.5 2404.25H2213.25V2426H2191.5V2404.25ZM2191.5 2426H2213.25V2447.75H2191.5V2426ZM2191.5 2447.75H2213.25V2469.5H2191.5V2447.75ZM2191.5 2339H2213.25V2360.75H2191.5V2339ZM2191.5 2317.25H2213.25V2339H2191.5V2317.25ZM2169.75 2295.5H2191.5V2317.25H2169.75V2295.5ZM2191.5 2295.5H2213.25V2317.25H2191.5V2295.5ZM2169.75 2317.25H2191.5V2339H2169.75V2317.25ZM2148 2295.5H2169.75V2317.25H2148V2295.5ZM2148 2317.25H2169.75V2339H2148V2317.25ZM2278.33 2295.5H2300.08V2317.25H2278.33V2295.5ZM2256.58 2295.5H2278.33V2317.25H2256.58V2295.5ZM2256.58 2317.25H2278.33V2339H2256.58V2317.25ZM2278.33 2317.25H2300.08V2339H2278.33V2317.25ZM2300.08 2317.25H2321.83V2339H2300.08V2317.25ZM2300.08 2295.5H2321.83V2317.25H2300.08V2295.5ZM2321.83 2295.5H2343.58V2317.25H2321.83V2295.5ZM2343.58 2317.25H2365.33V2339H2343.58V2317.25ZM2321.83 2317.25H2343.58V2339H2321.83V2317.25ZM2343.58 2339H2365.33V2360.75H2343.58V2339ZM2343.58 2469.5H2365.33V2491.25H2343.58V2469.5ZM2343.58 2447.75H2365.33V2469.5H2343.58V2447.75ZM2343.58 2426H2365.33V2447.75H2343.58V2426ZM2343.58 2404.25H2365.33V2426H2343.58V2404.25ZM2343.58 2382.5H2365.33V2404.25H2343.58V2382.5ZM2343.58 2360.75H2365.33V2382.5H2343.58V2360.75ZM2321.83 2469.5H2343.58V2491.25H2321.83V2469.5ZM2321.83 2491.25H2343.58V2513H2321.83V2491.25ZM2300.08 2491.25H2321.83V2513H2300.08V2491.25ZM2300.08 2469.5H2321.83V2491.25H2300.08V2469.5ZM2278.33 2491.25H2300.08V2513H2278.33V2491.25ZM2256.58 2491.25H2278.33V2513H2256.58V2491.25ZM2256.58 2469.5H2278.33V2491.25H2256.58V2469.5ZM2278.33 2469.5H2300.08V2491.25H2278.33V2469.5ZM2256.58 2447.75H2278.33V2469.5H2256.58V2447.75ZM2234.83 2469.5H2256.58V2491.25H2234.83V2469.5ZM2234.83 2447.75H2256.58V2469.5H2234.83V2447.75ZM2234.83 2426H2256.58V2447.75H2234.83V2426ZM2234.83 2404.25H2256.58V2426H2234.83V2404.25ZM2234.83 2382.5H2256.58V2404.25H2234.83V2382.5ZM2234.83 2360.75H2256.58V2382.5H2234.83V2360.75ZM2234.83 2339H2256.58V2360.75H2234.83V2339ZM2256.58 2339H2278.33V2360.75H2256.58V2339ZM2234.83 2317.25H2256.58V2339H2234.83V2317.25ZM2256.58 2360.75H2278.33V2382.5H2256.58V2360.75ZM2256.58 2382.5H2278.33V2404.25H2256.58V2382.5ZM2256.58 2404.25H2278.33V2426H2256.58V2404.25ZM2256.58 2426H2278.33V2447.75H2256.58V2426ZM2321.83 2339H2343.58V2360.75H2321.83V2339ZM2321.83 2360.75H2343.58V2382.5H2321.83V2360.75ZM2321.83 2382.5H2343.58V2404.25H2321.83V2382.5ZM2321.83 2404.25H2343.58V2426H2321.83V2404.25ZM2321.83 2426H2343.58V2447.75H2321.83V2426ZM2321.83 2447.75H2343.58V2469.5H2321.83V2447.75ZM2430.58 2295.5H2452.33V2317.25H2430.58V2295.5ZM2408.83 2295.5H2430.58V2317.25H2408.83V2295.5ZM2408.83 2317.25H2430.58V2339H2408.83V2317.25ZM2430.58 2317.25H2452.33V2339H2430.58V2317.25ZM2452.33 2317.25H2474.08V2339H2452.33V2317.25ZM2452.33 2295.5H2474.08V2317.25H2452.33V2295.5ZM2474.08 2295.5H2495.83V2317.25H2474.08V2295.5ZM2495.83 2317.25H2517.58V2339H2495.83V2317.25ZM2474.08 2317.25H2495.83V2339H2474.08V2317.25ZM2495.83 2339H2517.58V2360.75H2495.83V2339ZM2495.83 2469.5H2517.58V2491.25H2495.83V2469.5ZM2495.83 2447.75H2517.58V2469.5H2495.83V2447.75ZM2495.83 2426H2517.58V2447.75H2495.83V2426ZM2495.83 2404.25H2517.58V2426H2495.83V2404.25ZM2495.83 2382.5H2517.58V2404.25H2495.83V2382.5ZM2495.83 2360.75H2517.58V2382.5H2495.83V2360.75ZM2474.08 2469.5H2495.83V2491.25H2474.08V2469.5ZM2474.08 2491.25H2495.83V2513H2474.08V2491.25ZM2452.33 2491.25H2474.08V2513H2452.33V2491.25ZM2452.33 2469.5H2474.08V2491.25H2452.33V2469.5ZM2430.58 2491.25H2452.33V2513H2430.58V2491.25ZM2408.83 2491.25H2430.58V2513H2408.83V2491.25ZM2408.83 2469.5H2430.58V2491.25H2408.83V2469.5ZM2430.58 2469.5H2452.33V2491.25H2430.58V2469.5ZM2408.83 2447.75H2430.58V2469.5H2408.83V2447.75ZM2387.08 2469.5H2408.83V2491.25H2387.08V2469.5ZM2387.08 2447.75H2408.83V2469.5H2387.08V2447.75ZM2387.08 2426H2408.83V2447.75H2387.08V2426ZM2387.08 2404.25H2408.83V2426H2387.08V2404.25ZM2387.08 2382.5H2408.83V2404.25H2387.08V2382.5ZM2387.08 2360.75H2408.83V2382.5H2387.08V2360.75ZM2387.08 2339H2408.83V2360.75H2387.08V2339ZM2408.83 2339H2430.58V2360.75H2408.83V2339ZM2387.08 2317.25H2408.83V2339H2387.08V2317.25ZM2408.83 2360.75H2430.58V2382.5H2408.83V2360.75ZM2408.83 2382.5H2430.58V2404.25H2408.83V2382.5ZM2408.83 2404.25H2430.58V2426H2408.83V2404.25ZM2408.83 2426H2430.58V2447.75H2408.83V2426ZM2474.08 2339H2495.83V2360.75H2474.08V2339ZM2474.08 2360.75H2495.83V2382.5H2474.08V2360.75ZM2474.08 2382.5H2495.83V2404.25H2474.08V2382.5ZM2474.08 2404.25H2495.83V2426H2474.08V2404.25ZM2474.08 2426H2495.83V2447.75H2474.08V2426ZM2474.08 2447.75H2495.83V2469.5H2474.08V2447.75ZM2582.83 2295.5H2604.58V2317.25H2582.83V2295.5ZM2561.08 2295.5H2582.83V2317.25H2561.08V2295.5ZM2561.08 2317.25H2582.83V2339H2561.08V2317.25ZM2582.83 2317.25H2604.58V2339H2582.83V2317.25ZM2604.58 2317.25H2626.33V2339H2604.58V2317.25ZM2604.58 2295.5H2626.33V2317.25H2604.58V2295.5ZM2626.33 2295.5H2648.08V2317.25H2626.33V2295.5ZM2648.08 2317.25H2669.83V2339H2648.08V2317.25ZM2626.33 2317.25H2648.08V2339H2626.33V2317.25ZM2648.08 2339H2669.83V2360.75H2648.08V2339ZM2648.08 2469.5H2669.83V2491.25H2648.08V2469.5ZM2648.08 2447.75H2669.83V2469.5H2648.08V2447.75ZM2648.08 2426H2669.83V2447.75H2648.08V2426ZM2648.08 2404.25H2669.83V2426H2648.08V2404.25ZM2648.08 2382.5H2669.83V2404.25H2648.08V2382.5ZM2648.08 2360.75H2669.83V2382.5H2648.08V2360.75ZM2626.33 2469.5H2648.08V2491.25H2626.33V2469.5ZM2626.33 2491.25H2648.08V2513H2626.33V2491.25ZM2604.58 2491.25H2626.33V2513H2604.58V2491.25ZM2604.58 2469.5H2626.33V2491.25H2604.58V2469.5ZM2582.83 2491.25H2604.58V2513H2582.83V2491.25ZM2561.08 2491.25H2582.83V2513H2561.08V2491.25ZM2561.08 2469.5H2582.83V2491.25H2561.08V2469.5ZM2582.83 2469.5H2604.58V2491.25H2582.83V2469.5ZM2561.08 2447.75H2582.83V2469.5H2561.08V2447.75ZM2539.33 2469.5H2561.08V2491.25H2539.33V2469.5ZM2539.33 2447.75H2561.08V2469.5H2539.33V2447.75ZM2539.33 2426H2561.08V2447.75H2539.33V2426ZM2539.33 2404.25H2561.08V2426H2539.33V2404.25ZM2539.33 2382.5H2561.08V2404.25H2539.33V2382.5ZM2539.33 2360.75H2561.08V2382.5H2539.33V2360.75ZM2539.33 2339H2561.08V2360.75H2539.33V2339ZM2561.08 2339H2582.83V2360.75H2561.08V2339ZM2539.33 2317.25H2561.08V2339H2539.33V2317.25ZM2561.08 2360.75H2582.83V2382.5H2561.08V2360.75ZM2561.08 2382.5H2582.83V2404.25H2561.08V2382.5ZM2561.08 2404.25H2582.83V2426H2561.08V2404.25ZM2561.08 2426H2582.83V2447.75H2561.08V2426ZM2626.33 2339H2648.08V2360.75H2626.33V2339ZM2626.33 2360.75H2648.08V2382.5H2626.33V2360.75ZM2626.33 2382.5H2648.08V2404.25H2626.33V2382.5ZM2626.33 2404.25H2648.08V2426H2626.33V2404.25ZM2626.33 2426H2648.08V2447.75H2626.33V2426ZM2626.33 2447.75H2648.08V2469.5H2626.33V2447.75Z" fill="white"/>
<path d="M2299.75 1785.5H2321.5V1807.25H2299.75V1785.5ZM2278 1785.5H2299.75V1807.25H2278V1785.5ZM2278 1807.25H2299.75V1829H2278V1807.25ZM2256.25 1807.25H2278V1829H2256.25V1807.25ZM2234.5 1807.25H2256.25V1829H2234.5V1807.25ZM2234.5 1785.5H2256.25V1807.25H2234.5V1785.5ZM2212.75 1785.5H2234.5V1807.25H2212.75V1785.5ZM2191 1785.5H2212.75V1807.25H2191V1785.5ZM2256.25 1785.5H2278V1807.25H2256.25V1785.5ZM2299.75 1807.25H2321.5V1829H2299.75V1807.25ZM2212.75 1807.25H2234.5V1829H2212.75V1807.25ZM2191 1807.25H2212.75V1829H2191V1807.25ZM2191 1829H2212.75V1850.75H2191V1829ZM2191 1850.75H2212.75V1872.5H2191V1850.75ZM2212.75 1850.75H2234.5V1872.5H2212.75V1850.75ZM2212.75 1829H2234.5V1850.75H2212.75V1829ZM2212.75 1872.5H2234.5V1894.25H2212.75V1872.5ZM2191 1872.5H2212.75V1894.25H2191V1872.5ZM2212.75 1894.25H2234.5V1916H2212.75V1894.25ZM2234.5 1894.25H2256.25V1916H2234.5V1894.25ZM2256.25 1894.25H2278V1916H2256.25V1894.25ZM2278 1894.25H2299.75V1916H2278V1894.25ZM2278 1872.5H2299.75V1894.25H2278V1872.5ZM2256.25 1872.5H2278V1894.25H2256.25V1872.5ZM2234.5 1872.5H2256.25V1894.25H2234.5V1872.5ZM2299.75 1894.25H2321.5V1916H2299.75V1894.25ZM2299.75 1916H2321.5V1937.75H2299.75V1916ZM2299.75 1937.75H2321.5V1959.5H2299.75V1937.75ZM2299.75 1959.5H2321.5V1981.25H2299.75V1959.5ZM2278 1937.75H2299.75V1959.5H2278V1937.75ZM2278 1916H2299.75V1937.75H2278V1916ZM2278 1959.5H2299.75V1981.25H2278V1959.5ZM2278 1981.25H2299.75V2003H2278V1981.25ZM2256.25 1981.25H2278V2003H2256.25V1981.25ZM2234.5 1981.25H2256.25V2003H2234.5V1981.25ZM2234.5 1959.5H2256.25V1981.25H2234.5V1959.5ZM2212.75 1959.5H2234.5V1981.25H2212.75V1959.5ZM2212.75 1981.25H2234.5V2003H2212.75V1981.25ZM2256.25 1959.5H2278V1981.25H2256.25V1959.5ZM2191 1959.5H2212.75V1981.25H2191V1959.5ZM2191 1937.75H2212.75V1959.5H2191V1937.75ZM2212.75 1937.75H2234.5V1959.5H2212.75V1937.75ZM2386.75 1785.5H2408.5V1807.25H2386.75V1785.5ZM2365 1785.5H2386.75V1807.25H2365V1785.5ZM2365 1807.25H2386.75V1829H2365V1807.25ZM2386.75 1807.25H2408.5V1829H2386.75V1807.25ZM2408.5 1807.25H2430.25V1829H2408.5V1807.25ZM2408.5 1785.5H2430.25V1807.25H2408.5V1785.5ZM2430.25 1785.5H2452V1807.25H2430.25V1785.5ZM2452 1807.25H2473.75V1829H2452V1807.25ZM2430.25 1807.25H2452V1829H2430.25V1807.25ZM2452 1829H2473.75V1850.75H2452V1829ZM2452 1959.5H2473.75V1981.25H2452V1959.5ZM2452 1937.75H2473.75V1959.5H2452V1937.75ZM2452 1916H2473.75V1937.75H2452V1916ZM2452 1894.25H2473.75V1916H2452V1894.25ZM2452 1872.5H2473.75V1894.25H2452V1872.5ZM2452 1850.75H2473.75V1872.5H2452V1850.75ZM2430.25 1959.5H2452V1981.25H2430.25V1959.5ZM2430.25 1981.25H2452V2003H2430.25V1981.25ZM2408.5 1981.25H2430.25V2003H2408.5V1981.25ZM2408.5 1959.5H2430.25V1981.25H2408.5V1959.5ZM2386.75 1981.25H2408.5V2003H2386.75V1981.25ZM2365 1981.25H2386.75V2003H2365V1981.25ZM2365 1959.5H2386.75V1981.25H2365V1959.5ZM2386.75 1959.5H2408.5V1981.25H2386.75V1959.5ZM2365 1937.75H2386.75V1959.5H2365V1937.75ZM2343.25 1959.5H2365V1981.25H2343.25V1959.5ZM2343.25 1937.75H2365V1959.5H2343.25V1937.75ZM2343.25 1916H2365V1937.75H2343.25V1916ZM2343.25 1894.25H2365V1916H2343.25V1894.25ZM2343.25 1872.5H2365V1894.25H2343.25V1872.5ZM2343.25 1850.75H2365V1872.5H2343.25V1850.75ZM2343.25 1829H2365V1850.75H2343.25V1829ZM2365 1829H2386.75V1850.75H2365V1829ZM2343.25 1807.25H2365V1829H2343.25V1807.25ZM2365 1850.75H2386.75V1872.5H2365V1850.75ZM2365 1872.5H2386.75V1894.25H2365V1872.5ZM2365 1894.25H2386.75V1916H2365V1894.25ZM2365 1916H2386.75V1937.75H2365V1916ZM2430.25 1829H2452V1850.75H2430.25V1829ZM2430.25 1850.75H2452V1872.5H2430.25V1850.75ZM2430.25 1872.5H2452V1894.25H2430.25V1872.5ZM2430.25 1894.25H2452V1916H2430.25V1894.25ZM2430.25 1916H2452V1937.75H2430.25V1916ZM2430.25 1937.75H2452V1959.5H2430.25V1937.75ZM2539 1785.5H2560.75V1807.25H2539V1785.5ZM2517.25 1785.5H2539V1807.25H2517.25V1785.5ZM2517.25 1807.25H2539V1829H2517.25V1807.25ZM2539 1807.25H2560.75V1829H2539V1807.25ZM2560.75 1807.25H2582.5V1829H2560.75V1807.25ZM2560.75 1785.5H2582.5V1807.25H2560.75V1785.5ZM2582.5 1785.5H2604.25V1807.25H2582.5V1785.5ZM2604.25 1807.25H2626V1829H2604.25V1807.25ZM2582.5 1807.25H2604.25V1829H2582.5V1807.25ZM2604.25 1829H2626V1850.75H2604.25V1829ZM2604.25 1959.5H2626V1981.25H2604.25V1959.5ZM2604.25 1937.75H2626V1959.5H2604.25V1937.75ZM2604.25 1916H2626V1937.75H2604.25V1916ZM2604.25 1894.25H2626V1916H2604.25V1894.25ZM2604.25 1872.5H2626V1894.25H2604.25V1872.5ZM2604.25 1850.75H2626V1872.5H2604.25V1850.75ZM2582.5 1959.5H2604.25V1981.25H2582.5V1959.5ZM2582.5 1981.25H2604.25V2003H2582.5V1981.25ZM2560.75 1981.25H2582.5V2003H2560.75V1981.25ZM2560.75 1959.5H2582.5V1981.25H2560.75V1959.5ZM2539 1981.25H2560.75V2003H2539V1981.25ZM2517.25 1981.25H2539V2003H2517.25V1981.25ZM2517.25 1959.5H2539V1981.25H2517.25V1959.5ZM2539 1959.5H2560.75V1981.25H2539V1959.5ZM2517.25 1937.75H2539V1959.5H2517.25V1937.75ZM2495.5 1959.5H2517.25V1981.25H2495.5V1959.5ZM2495.5 1937.75H2517.25V1959.5H2495.5V1937.75ZM2495.5 1916H2517.25V1937.75H2495.5V1916ZM2495.5 1894.25H2517.25V1916H2495.5V1894.25ZM2495.5 1872.5H2517.25V1894.25H2495.5V1872.5ZM2495.5 1850.75H2517.25V1872.5H2495.5V1850.75ZM2495.5 1829H2517.25V1850.75H2495.5V1829ZM2517.25 1829H2539V1850.75H2517.25V1829ZM2495.5 1807.25H2517.25V1829H2495.5V1807.25ZM2517.25 1850.75H2539V1872.5H2517.25V1850.75ZM2517.25 1872.5H2539V1894.25H2517.25V1872.5ZM2517.25 1894.25H2539V1916H2517.25V1894.25ZM2517.25 1916H2539V1937.75H2517.25V1916ZM2582.5 1829H2604.25V1850.75H2582.5V1829ZM2582.5 1850.75H2604.25V1872.5H2582.5V1850.75ZM2582.5 1872.5H2604.25V1894.25H2582.5V1872.5ZM2582.5 1894.25H2604.25V1916H2582.5V1894.25ZM2582.5 1916H2604.25V1937.75H2582.5V1916ZM2582.5 1937.75H2604.25V1959.5H2582.5V1937.75Z" fill="white"/>
<path d="M2191 1454.25H2212.75V1476H2191V1454.25ZM2191 1476H2212.75V1497.75H2191V1476ZM2212.75 1476H2234.5V1497.75H2212.75V1476ZM2212.75 1454.25H2234.5V1476H2212.75V1454.25ZM2212.75 1432.5H2234.5V1454.25H2212.75V1432.5ZM2234.5 1432.5H2256.25V1454.25H2234.5V1432.5ZM2256.25 1432.5H2278V1454.25H2256.25V1432.5ZM2278 1432.5H2299.75V1454.25H2278V1432.5ZM2299.75 1432.5H2321.5V1454.25H2299.75V1432.5ZM2299.75 1454.25H2321.5V1476H2299.75V1454.25ZM2278 1454.25H2299.75V1476H2278V1454.25ZM2256.25 1454.25H2278V1476H2256.25V1454.25ZM2234.5 1454.25H2256.25V1476H2234.5V1454.25ZM2299.75 1476H2321.5V1497.75H2299.75V1476ZM2321.5 1476H2343.25V1497.75H2321.5V1476ZM2321.5 1454.25H2343.25V1476H2321.5V1454.25ZM2321.5 1497.75H2343.25V1519.5H2321.5V1497.75ZM2299.75 1497.75H2321.5V1519.5H2299.75V1497.75ZM2278 1497.75H2299.75V1519.5H2278V1497.75ZM2278 1519.5H2299.75V1541.25H2278V1519.5ZM2299.75 1519.5H2321.5V1541.25H2299.75V1519.5ZM2256.25 1519.5H2278V1541.25H2256.25V1519.5ZM2256.25 1541.25H2278V1563H2256.25V1541.25ZM2278 1541.25H2299.75V1563H2278V1541.25ZM2234.5 1541.25H2256.25V1563H2234.5V1541.25ZM2234.5 1563H2256.25V1584.75H2234.5V1563ZM2256.25 1563H2278V1584.75H2256.25V1563ZM2212.75 1563H2234.5V1584.75H2212.75V1563ZM2212.75 1584.75H2234.5V1606.5H2212.75V1584.75ZM2234.5 1584.75H2256.25V1606.5H2234.5V1584.75ZM2191 1584.75H2212.75V1606.5H2191V1584.75ZM2191 1606.5H2212.75V1628.25H2191V1606.5ZM2191 1628.25H2212.75V1650H2191V1628.25ZM2212.75 1628.25H2234.5V1650H2212.75V1628.25ZM2212.75 1606.5H2234.5V1628.25H2212.75V1606.5ZM2234.5 1606.5H2256.25V1628.25H2234.5V1606.5ZM2256.25 1606.5H2278V1628.25H2256.25V1606.5ZM2256.25 1628.25H2278V1650H2256.25V1628.25ZM2278 1628.25H2299.75V1650H2278V1628.25ZM2299.75 1628.25H2321.5V1650H2299.75V1628.25ZM2321.5 1628.25H2343.25V1650H2321.5V1628.25ZM2321.5 1606.5H2343.25V1628.25H2321.5V1606.5ZM2299.75 1606.5H2321.5V1628.25H2299.75V1606.5ZM2278 1606.5H2299.75V1628.25H2278V1606.5ZM2234.5 1628.25H2256.25V1650H2234.5V1628.25ZM2473.81 1432.5H2495.56V1454.25H2473.81V1432.5ZM2452.06 1432.5H2473.81V1454.25H2452.06V1432.5ZM2452.06 1454.25H2473.81V1476H2452.06V1454.25ZM2430.31 1454.25H2452.06V1476H2430.31V1454.25ZM2408.56 1454.25H2430.31V1476H2408.56V1454.25ZM2408.56 1432.5H2430.31V1454.25H2408.56V1432.5ZM2386.81 1432.5H2408.56V1454.25H2386.81V1432.5ZM2365.06 1432.5H2386.81V1454.25H2365.06V1432.5ZM2430.31 1432.5H2452.06V1454.25H2430.31V1432.5ZM2473.81 1454.25H2495.56V1476H2473.81V1454.25ZM2386.81 1454.25H2408.56V1476H2386.81V1454.25ZM2365.06 1454.25H2386.81V1476H2365.06V1454.25ZM2365.06 1476H2386.81V1497.75H2365.06V1476ZM2365.06 1497.75H2386.81V1519.5H2365.06V1497.75ZM2386.81 1497.75H2408.56V1519.5H2386.81V1497.75ZM2386.81 1476H2408.56V1497.75H2386.81V1476ZM2386.81 1519.5H2408.56V1541.25H2386.81V1519.5ZM2365.06 1519.5H2386.81V1541.25H2365.06V1519.5ZM2386.81 1541.25H2408.56V1563H2386.81V1541.25ZM2408.56 1541.25H2430.31V1563H2408.56V1541.25ZM2430.31 1541.25H2452.06V1563H2430.31V1541.25ZM2452.06 1541.25H2473.81V1563H2452.06V1541.25ZM2452.06 1519.5H2473.81V1541.25H2452.06V1519.5ZM2430.31 1519.5H2452.06V1541.25H2430.31V1519.5ZM2408.56 1519.5H2430.31V1541.25H2408.56V1519.5ZM2473.81 1541.25H2495.56V1563H2473.81V1541.25ZM2473.81 1563H2495.56V1584.75H2473.81V1563ZM2473.81 1584.75H2495.56V1606.5H2473.81V1584.75ZM2473.81 1606.5H2495.56V1628.25H2473.81V1606.5ZM2452.06 1584.75H2473.81V1606.5H2452.06V1584.75ZM2452.06 1563H2473.81V1584.75H2452.06V1563ZM2452.06 1606.5H2473.81V1628.25H2452.06V1606.5ZM2452.06 1628.25H2473.81V1650H2452.06V1628.25ZM2430.31 1628.25H2452.06V1650H2430.31V1628.25ZM2408.56 1628.25H2430.31V1650H2408.56V1628.25ZM2408.56 1606.5H2430.31V1628.25H2408.56V1606.5ZM2386.81 1606.5H2408.56V1628.25H2386.81V1606.5ZM2386.81 1628.25H2408.56V1650H2386.81V1628.25ZM2430.31 1606.5H2452.06V1628.25H2430.31V1606.5ZM2365.06 1606.5H2386.81V1628.25H2365.06V1606.5ZM2365.06 1584.75H2386.81V1606.5H2365.06V1584.75ZM2386.81 1584.75H2408.56V1606.5H2386.81V1584.75ZM2560.81 1432.5H2582.56V1454.25H2560.81V1432.5ZM2539.06 1432.5H2560.81V1454.25H2539.06V1432.5ZM2539.06 1454.25H2560.81V1476H2539.06V1454.25ZM2560.81 1454.25H2582.56V1476H2560.81V1454.25ZM2582.56 1454.25H2604.31V1476H2582.56V1454.25ZM2582.56 1432.5H2604.31V1454.25H2582.56V1432.5ZM2604.31 1432.5H2626.06V1454.25H2604.31V1432.5ZM2626.06 1454.25H2647.81V1476H2626.06V1454.25ZM2604.31 1454.25H2626.06V1476H2604.31V1454.25ZM2626.06 1476H2647.81V1497.75H2626.06V1476ZM2626.06 1606.5H2647.81V1628.25H2626.06V1606.5ZM2626.06 1584.75H2647.81V1606.5H2626.06V1584.75ZM2626.06 1563H2647.81V1584.75H2626.06V1563ZM2626.06 1541.25H2647.81V1563H2626.06V1541.25ZM2626.06 1519.5H2647.81V1541.25H2626.06V1519.5ZM2626.06 1497.75H2647.81V1519.5H2626.06V1497.75ZM2604.31 1606.5H2626.06V1628.25H2604.31V1606.5ZM2604.31 1628.25H2626.06V1650H2604.31V1628.25ZM2582.56 1628.25H2604.31V1650H2582.56V1628.25ZM2582.56 1606.5H2604.31V1628.25H2582.56V1606.5ZM2560.81 1628.25H2582.56V1650H2560.81V1628.25ZM2539.06 1628.25H2560.81V1650H2539.06V1628.25ZM2539.06 1606.5H2560.81V1628.25H2539.06V1606.5ZM2560.81 1606.5H2582.56V1628.25H2560.81V1606.5ZM2539.06 1584.75H2560.81V1606.5H2539.06V1584.75ZM2517.31 1606.5H2539.06V1628.25H2517.31V1606.5ZM2517.31 1584.75H2539.06V1606.5H2517.31V1584.75ZM2517.31 1563H2539.06V1584.75H2517.31V1563ZM2517.31 1541.25H2539.06V1563H2517.31V1541.25ZM2517.31 1519.5H2539.06V1541.25H2517.31V1519.5ZM2517.31 1497.75H2539.06V1519.5H2517.31V1497.75ZM2517.31 1476H2539.06V1497.75H2517.31V1476ZM2539.06 1476H2560.81V1497.75H2539.06V1476ZM2517.31 1454.25H2539.06V1476H2517.31V1454.25ZM2539.06 1497.75H2560.81V1519.5H2539.06V1497.75ZM2539.06 1519.5H2560.81V1541.25H2539.06V1519.5ZM2539.06 1541.25H2560.81V1563H2539.06V1541.25ZM2539.06 1563H2560.81V1584.75H2539.06V1563ZM2604.31 1476H2626.06V1497.75H2604.31V1476ZM2604.31 1497.75H2626.06V1519.5H2604.31V1497.75ZM2604.31 1519.5H2626.06V1541.25H2604.31V1519.5ZM2604.31 1541.25H2626.06V1563H2604.31V1541.25ZM2604.31 1563H2626.06V1584.75H2604.31V1563ZM2604.31 1584.75H2626.06V1606.5H2604.31V1584.75Z" fill="white"/>
<path d="M2213 569.25H2234.75V591H2213V569.25ZM2213 591H2234.75V612.75H2213V591ZM2234.75 591H2256.5V612.75H2234.75V591ZM2234.75 569.25H2256.5V591H2234.75V569.25ZM2234.75 547.5H2256.5V569.25H2234.75V547.5ZM2256.5 547.5H2278.25V569.25H2256.5V547.5ZM2278.25 547.5H2300V569.25H2278.25V547.5ZM2300 547.5H2321.75V569.25H2300V547.5ZM2321.75 547.5H2343.5V569.25H2321.75V547.5ZM2321.75 569.25H2343.5V591H2321.75V569.25ZM2300 569.25H2321.75V591H2300V569.25ZM2278.25 569.25H2300V591H2278.25V569.25ZM2256.5 569.25H2278.25V591H2256.5V569.25ZM2321.75 591H2343.5V612.75H2321.75V591ZM2343.5 591H2365.25V612.75H2343.5V591ZM2343.5 569.25H2365.25V591H2343.5V569.25ZM2343.5 612.75H2365.25V634.5H2343.5V612.75ZM2321.75 612.75H2343.5V634.5H2321.75V612.75ZM2300 612.75H2321.75V634.5H2300V612.75ZM2300 634.5H2321.75V656.25H2300V634.5ZM2321.75 634.5H2343.5V656.25H2321.75V634.5ZM2278.25 634.5H2300V656.25H2278.25V634.5ZM2278.25 656.25H2300V678H2278.25V656.25ZM2300 656.25H2321.75V678H2300V656.25ZM2256.5 656.25H2278.25V678H2256.5V656.25ZM2256.5 678H2278.25V699.75H2256.5V678ZM2278.25 678H2300V699.75H2278.25V678ZM2234.75 678H2256.5V699.75H2234.75V678ZM2234.75 699.75H2256.5V721.5H2234.75V699.75ZM2256.5 699.75H2278.25V721.5H2256.5V699.75ZM2213 699.75H2234.75V721.5H2213V699.75ZM2213 721.5H2234.75V743.25H2213V721.5ZM2213 743.25H2234.75V765H2213V743.25ZM2234.75 743.25H2256.5V765H2234.75V743.25ZM2234.75 721.5H2256.5V743.25H2234.75V721.5ZM2256.5 721.5H2278.25V743.25H2256.5V721.5ZM2278.25 721.5H2300V743.25H2278.25V721.5ZM2278.25 743.25H2300V765H2278.25V743.25ZM2300 743.25H2321.75V765H2300V743.25ZM2321.75 743.25H2343.5V765H2321.75V743.25ZM2343.5 743.25H2365.25V765H2343.5V743.25ZM2343.5 721.5H2365.25V743.25H2343.5V721.5ZM2321.75 721.5H2343.5V743.25H2321.75V721.5ZM2300 721.5H2321.75V743.25H2300V721.5ZM2256.5 743.25H2278.25V765H2256.5V743.25ZM2495.81 547.5H2517.56V569.25H2495.81V547.5ZM2474.06 547.5H2495.81V569.25H2474.06V547.5ZM2474.06 569.25H2495.81V591H2474.06V569.25ZM2452.31 569.25H2474.06V591H2452.31V569.25ZM2430.56 569.25H2452.31V591H2430.56V569.25ZM2430.56 547.5H2452.31V569.25H2430.56V547.5ZM2408.81 547.5H2430.56V569.25H2408.81V547.5ZM2387.06 547.5H2408.81V569.25H2387.06V547.5ZM2452.31 547.5H2474.06V569.25H2452.31V547.5ZM2495.81 569.25H2517.56V591H2495.81V569.25ZM2408.81 569.25H2430.56V591H2408.81V569.25ZM2387.06 569.25H2408.81V591H2387.06V569.25ZM2387.06 591H2408.81V612.75H2387.06V591ZM2387.06 612.75H2408.81V634.5H2387.06V612.75ZM2408.81 612.75H2430.56V634.5H2408.81V612.75ZM2408.81 591H2430.56V612.75H2408.81V591ZM2408.81 634.5H2430.56V656.25H2408.81V634.5ZM2387.06 634.5H2408.81V656.25H2387.06V634.5ZM2408.81 656.25H2430.56V678H2408.81V656.25ZM2430.56 656.25H2452.31V678H2430.56V656.25ZM2452.31 656.25H2474.06V678H2452.31V656.25ZM2474.06 656.25H2495.81V678H2474.06V656.25ZM2474.06 634.5H2495.81V656.25H2474.06V634.5ZM2452.31 634.5H2474.06V656.25H2452.31V634.5ZM2430.56 634.5H2452.31V656.25H2430.56V634.5ZM2495.81 656.25H2517.56V678H2495.81V656.25ZM2495.81 678H2517.56V699.75H2495.81V678ZM2495.81 699.75H2517.56V721.5H2495.81V699.75ZM2495.81 721.5H2517.56V743.25H2495.81V721.5ZM2474.06 699.75H2495.81V721.5H2474.06V699.75ZM2474.06 678H2495.81V699.75H2474.06V678ZM2474.06 721.5H2495.81V743.25H2474.06V721.5ZM2474.06 743.25H2495.81V765H2474.06V743.25ZM2452.31 743.25H2474.06V765H2452.31V743.25ZM2430.56 743.25H2452.31V765H2430.56V743.25ZM2430.56 721.5H2452.31V743.25H2430.56V721.5ZM2408.81 721.5H2430.56V743.25H2408.81V721.5ZM2408.81 743.25H2430.56V765H2408.81V743.25ZM2452.31 721.5H2474.06V743.25H2452.31V721.5ZM2387.06 721.5H2408.81V743.25H2387.06V721.5ZM2387.06 699.75H2408.81V721.5H2387.06V699.75ZM2408.81 699.75H2430.56V721.5H2408.81V699.75ZM2582.81 547.5H2604.56V569.25H2582.81V547.5ZM2561.06 547.5H2582.81V569.25H2561.06V547.5ZM2561.06 569.25H2582.81V591H2561.06V569.25ZM2582.81 569.25H2604.56V591H2582.81V569.25ZM2604.56 569.25H2626.31V591H2604.56V569.25ZM2604.56 547.5H2626.31V569.25H2604.56V547.5ZM2626.31 547.5H2648.06V569.25H2626.31V547.5ZM2648.06 569.25H2669.81V591H2648.06V569.25ZM2626.31 569.25H2648.06V591H2626.31V569.25ZM2648.06 591H2669.81V612.75H2648.06V591ZM2648.06 721.5H2669.81V743.25H2648.06V721.5ZM2648.06 699.75H2669.81V721.5H2648.06V699.75ZM2648.06 678H2669.81V699.75H2648.06V678ZM2648.06 656.25H2669.81V678H2648.06V656.25ZM2648.06 634.5H2669.81V656.25H2648.06V634.5ZM2648.06 612.75H2669.81V634.5H2648.06V612.75ZM2626.31 721.5H2648.06V743.25H2626.31V721.5ZM2626.31 743.25H2648.06V765H2626.31V743.25ZM2604.56 743.25H2626.31V765H2604.56V743.25ZM2604.56 721.5H2626.31V743.25H2604.56V721.5ZM2582.81 743.25H2604.56V765H2582.81V743.25ZM2561.06 743.25H2582.81V765H2561.06V743.25ZM2561.06 721.5H2582.81V743.25H2561.06V721.5ZM2582.81 721.5H2604.56V743.25H2582.81V721.5ZM2561.06 699.75H2582.81V721.5H2561.06V699.75ZM2539.31 721.5H2561.06V743.25H2539.31V721.5ZM2539.31 699.75H2561.06V721.5H2539.31V699.75ZM2539.31 678H2561.06V699.75H2539.31V678ZM2539.31 656.25H2561.06V678H2539.31V656.25ZM2539.31 634.5H2561.06V656.25H2539.31V634.5ZM2539.31 612.75H2561.06V634.5H2539.31V612.75ZM2539.31 591H2561.06V612.75H2539.31V591ZM2561.06 591H2582.81V612.75H2561.06V591ZM2539.31 569.25H2561.06V591H2539.31V569.25ZM2561.06 612.75H2582.81V634.5H2561.06V612.75ZM2561.06 634.5H2582.81V656.25H2561.06V634.5ZM2561.06 656.25H2582.81V678H2561.06V656.25ZM2561.06 678H2582.81V699.75H2561.06V678ZM2626.31 591H2648.06V612.75H2626.31V591ZM2626.31 612.75H2648.06V634.5H2626.31V612.75ZM2626.31 634.5H2648.06V656.25H2626.31V634.5ZM2626.31 656.25H2648.06V678H2626.31V656.25ZM2626.31 678H2648.06V699.75H2626.31V678ZM2626.31 699.75H2648.06V721.5H2626.31V699.75Z" fill="white"/>
<path d="M2278.5 1156.5H2300.25V1178.25H2278.5V1156.5ZM2278.5 1178.25H2300.25V1200H2278.5V1178.25ZM2256.75 1178.25H2278.5V1200H2256.75V1178.25ZM2256.75 1156.5H2278.5V1178.25H2256.75V1156.5ZM2256.75 1134.75H2278.5V1156.5H2256.75V1134.75ZM2256.75 1113H2278.5V1134.75H2256.75V1113ZM2256.75 1091.25H2278.5V1113H2256.75V1091.25ZM2256.75 1069.5H2278.5V1091.25H2256.75V1069.5ZM2256.75 1047.75H2278.5V1069.5H2256.75V1047.75ZM2256.75 1026H2278.5V1047.75H2256.75V1026ZM2278.5 1047.75H2300.25V1069.5H2278.5V1047.75ZM2278.5 1069.5H2300.25V1091.25H2278.5V1069.5ZM2278.5 1091.25H2300.25V1113H2278.5V1091.25ZM2278.5 1113H2300.25V1134.75H2278.5V1113ZM2278.5 1134.75H2300.25V1156.5H2278.5V1134.75ZM2278.5 1026H2300.25V1047.75H2278.5V1026ZM2278.5 1004.25H2300.25V1026H2278.5V1004.25ZM2256.75 982.5H2278.5V1004.25H2256.75V982.5ZM2278.5 982.5H2300.25V1004.25H2278.5V982.5ZM2256.75 1004.25H2278.5V1026H2256.75V1004.25ZM2235 982.5H2256.75V1004.25H2235V982.5ZM2235 1004.25H2256.75V1026H2235V1004.25ZM2365.33 982.5H2387.08V1004.25H2365.33V982.5ZM2343.58 982.5H2365.33V1004.25H2343.58V982.5ZM2343.58 1004.25H2365.33V1026H2343.58V1004.25ZM2365.33 1004.25H2387.08V1026H2365.33V1004.25ZM2387.08 1004.25H2408.83V1026H2387.08V1004.25ZM2387.08 982.5H2408.83V1004.25H2387.08V982.5ZM2408.83 982.5H2430.58V1004.25H2408.83V982.5ZM2430.58 1004.25H2452.33V1026H2430.58V1004.25ZM2408.83 1004.25H2430.58V1026H2408.83V1004.25ZM2430.58 1026H2452.33V1047.75H2430.58V1026ZM2430.58 1156.5H2452.33V1178.25H2430.58V1156.5ZM2430.58 1134.75H2452.33V1156.5H2430.58V1134.75ZM2430.58 1113H2452.33V1134.75H2430.58V1113ZM2430.58 1091.25H2452.33V1113H2430.58V1091.25ZM2430.58 1069.5H2452.33V1091.25H2430.58V1069.5ZM2430.58 1047.75H2452.33V1069.5H2430.58V1047.75ZM2408.83 1156.5H2430.58V1178.25H2408.83V1156.5ZM2408.83 1178.25H2430.58V1200H2408.83V1178.25ZM2387.08 1178.25H2408.83V1200H2387.08V1178.25ZM2387.08 1156.5H2408.83V1178.25H2387.08V1156.5ZM2365.33 1178.25H2387.08V1200H2365.33V1178.25ZM2343.58 1178.25H2365.33V1200H2343.58V1178.25ZM2343.58 1156.5H2365.33V1178.25H2343.58V1156.5ZM2365.33 1156.5H2387.08V1178.25H2365.33V1156.5ZM2343.58 1134.75H2365.33V1156.5H2343.58V1134.75ZM2321.83 1156.5H2343.58V1178.25H2321.83V1156.5ZM2321.83 1134.75H2343.58V1156.5H2321.83V1134.75ZM2321.83 1113H2343.58V1134.75H2321.83V1113ZM2321.83 1091.25H2343.58V1113H2321.83V1091.25ZM2321.83 1069.5H2343.58V1091.25H2321.83V1069.5ZM2321.83 1047.75H2343.58V1069.5H2321.83V1047.75ZM2321.83 1026H2343.58V1047.75H2321.83V1026ZM2343.58 1026H2365.33V1047.75H2343.58V1026ZM2321.83 1004.25H2343.58V1026H2321.83V1004.25ZM2343.58 1047.75H2365.33V1069.5H2343.58V1047.75ZM2343.58 1069.5H2365.33V1091.25H2343.58V1069.5ZM2343.58 1091.25H2365.33V1113H2343.58V1091.25ZM2343.58 1113H2365.33V1134.75H2343.58V1113ZM2408.83 1026H2430.58V1047.75H2408.83V1026ZM2408.83 1047.75H2430.58V1069.5H2408.83V1047.75ZM2408.83 1069.5H2430.58V1091.25H2408.83V1069.5ZM2408.83 1091.25H2430.58V1113H2408.83V1091.25ZM2408.83 1113H2430.58V1134.75H2408.83V1113ZM2408.83 1134.75H2430.58V1156.5H2408.83V1134.75ZM2517.58 982.5H2539.33V1004.25H2517.58V982.5ZM2495.83 982.5H2517.58V1004.25H2495.83V982.5ZM2495.83 1004.25H2517.58V1026H2495.83V1004.25ZM2517.58 1004.25H2539.33V1026H2517.58V1004.25ZM2539.33 1004.25H2561.08V1026H2539.33V1004.25ZM2539.33 982.5H2561.08V1004.25H2539.33V982.5ZM2561.08 982.5H2582.83V1004.25H2561.08V982.5ZM2582.83 1004.25H2604.58V1026H2582.83V1004.25ZM2561.08 1004.25H2582.83V1026H2561.08V1004.25ZM2582.83 1026H2604.58V1047.75H2582.83V1026ZM2582.83 1156.5H2604.58V1178.25H2582.83V1156.5ZM2582.83 1134.75H2604.58V1156.5H2582.83V1134.75ZM2582.83 1113H2604.58V1134.75H2582.83V1113ZM2582.83 1091.25H2604.58V1113H2582.83V1091.25ZM2582.83 1069.5H2604.58V1091.25H2582.83V1069.5ZM2582.83 1047.75H2604.58V1069.5H2582.83V1047.75ZM2561.08 1156.5H2582.83V1178.25H2561.08V1156.5ZM2561.08 1178.25H2582.83V1200H2561.08V1178.25ZM2539.33 1178.25H2561.08V1200H2539.33V1178.25ZM2539.33 1156.5H2561.08V1178.25H2539.33V1156.5ZM2517.58 1178.25H2539.33V1200H2517.58V1178.25ZM2495.83 1178.25H2517.58V1200H2495.83V1178.25ZM2495.83 1156.5H2517.58V1178.25H2495.83V1156.5ZM2517.58 1156.5H2539.33V1178.25H2517.58V1156.5ZM2495.83 1134.75H2517.58V1156.5H2495.83V1134.75ZM2474.08 1156.5H2495.83V1178.25H2474.08V1156.5ZM2474.08 1134.75H2495.83V1156.5H2474.08V1134.75ZM2474.08 1113H2495.83V1134.75H2474.08V1113ZM2474.08 1091.25H2495.83V1113H2474.08V1091.25ZM2474.08 1069.5H2495.83V1091.25H2474.08V1069.5ZM2474.08 1047.75H2495.83V1069.5H2474.08V1047.75ZM2474.08 1026H2495.83V1047.75H2474.08V1026ZM2495.83 1026H2517.58V1047.75H2495.83V1026ZM2474.08 1004.25H2495.83V1026H2474.08V1004.25ZM2495.83 1047.75H2517.58V1069.5H2495.83V1047.75ZM2495.83 1069.5H2517.58V1091.25H2495.83V1069.5ZM2495.83 1091.25H2517.58V1113H2495.83V1091.25ZM2495.83 1113H2517.58V1134.75H2495.83V1113ZM2561.08 1026H2582.83V1047.75H2561.08V1026ZM2561.08 1047.75H2582.83V1069.5H2561.08V1047.75ZM2561.08 1069.5H2582.83V1091.25H2561.08V1069.5ZM2561.08 1091.25H2582.83V1113H2561.08V1091.25ZM2561.08 1113H2582.83V1134.75H2561.08V1113ZM2561.08 1134.75H2582.83V1156.5H2561.08V1134.75Z" fill="white"/>
<path d="M2267.5 286.5H2289.25V308.25H2267.5V286.5ZM2267.5 308.25H2289.25V330H2267.5V308.25ZM2245.75 308.25H2267.5V330H2245.75V308.25ZM2245.75 286.5H2267.5V308.25H2245.75V286.5ZM2245.75 264.75H2267.5V286.5H2245.75V264.75ZM2245.75 243H2267.5V264.75H2245.75V243ZM2245.75 221.25H2267.5V243H2245.75V221.25ZM2245.75 199.5H2267.5V221.25H2245.75V199.5ZM2245.75 177.75H2267.5V199.5H2245.75V177.75ZM2245.75 156H2267.5V177.75H2245.75V156ZM2267.5 177.75H2289.25V199.5H2267.5V177.75ZM2267.5 199.5H2289.25V221.25H2267.5V199.5ZM2267.5 221.25H2289.25V243H2267.5V221.25ZM2267.5 243H2289.25V264.75H2267.5V243ZM2267.5 264.75H2289.25V286.5H2267.5V264.75ZM2267.5 156H2289.25V177.75H2267.5V156ZM2267.5 134.25H2289.25V156H2267.5V134.25ZM2245.75 112.5H2267.5V134.25H2245.75V112.5ZM2267.5 112.5H2289.25V134.25H2267.5V112.5ZM2245.75 134.25H2267.5V156H2245.75V134.25ZM2224 112.5H2245.75V134.25H2224V112.5ZM2224 134.25H2245.75V156H2224V134.25ZM2354.33 112.5H2376.08V134.25H2354.33V112.5ZM2332.58 112.5H2354.33V134.25H2332.58V112.5ZM2332.58 134.25H2354.33V156H2332.58V134.25ZM2354.33 134.25H2376.08V156H2354.33V134.25ZM2376.08 134.25H2397.83V156H2376.08V134.25ZM2376.08 112.5H2397.83V134.25H2376.08V112.5ZM2397.83 112.5H2419.58V134.25H2397.83V112.5ZM2419.58 134.25H2441.33V156H2419.58V134.25ZM2397.83 134.25H2419.58V156H2397.83V134.25ZM2419.58 156H2441.33V177.75H2419.58V156ZM2419.58 286.5H2441.33V308.25H2419.58V286.5ZM2419.58 264.75H2441.33V286.5H2419.58V264.75ZM2419.58 243H2441.33V264.75H2419.58V243ZM2419.58 221.25H2441.33V243H2419.58V221.25ZM2419.58 199.5H2441.33V221.25H2419.58V199.5ZM2419.58 177.75H2441.33V199.5H2419.58V177.75ZM2397.83 286.5H2419.58V308.25H2397.83V286.5ZM2397.83 308.25H2419.58V330H2397.83V308.25ZM2376.08 308.25H2397.83V330H2376.08V308.25ZM2376.08 286.5H2397.83V308.25H2376.08V286.5ZM2354.33 308.25H2376.08V330H2354.33V308.25ZM2332.58 308.25H2354.33V330H2332.58V308.25ZM2332.58 286.5H2354.33V308.25H2332.58V286.5ZM2354.33 286.5H2376.08V308.25H2354.33V286.5ZM2332.58 264.75H2354.33V286.5H2332.58V264.75ZM2310.83 286.5H2332.58V308.25H2310.83V286.5ZM2310.83 264.75H2332.58V286.5H2310.83V264.75ZM2310.83 243H2332.58V264.75H2310.83V243ZM2310.83 221.25H2332.58V243H2310.83V221.25ZM2310.83 199.5H2332.58V221.25H2310.83V199.5ZM2310.83 177.75H2332.58V199.5H2310.83V177.75ZM2310.83 156H2332.58V177.75H2310.83V156ZM2332.58 156H2354.33V177.75H2332.58V156ZM2310.83 134.25H2332.58V156H2310.83V134.25ZM2332.58 177.75H2354.33V199.5H2332.58V177.75ZM2332.58 199.5H2354.33V221.25H2332.58V199.5ZM2332.58 221.25H2354.33V243H2332.58V221.25ZM2332.58 243H2354.33V264.75H2332.58V243ZM2397.83 156H2419.58V177.75H2397.83V156ZM2397.83 177.75H2419.58V199.5H2397.83V177.75ZM2397.83 199.5H2419.58V221.25H2397.83V199.5ZM2397.83 221.25H2419.58V243H2397.83V221.25ZM2397.83 243H2419.58V264.75H2397.83V243ZM2397.83 264.75H2419.58V286.5H2397.83V264.75ZM2506.58 112.5H2528.33V134.25H2506.58V112.5ZM2484.83 112.5H2506.58V134.25H2484.83V112.5ZM2484.83 134.25H2506.58V156H2484.83V134.25ZM2506.58 134.25H2528.33V156H2506.58V134.25ZM2528.33 134.25H2550.08V156H2528.33V134.25ZM2528.33 112.5H2550.08V134.25H2528.33V112.5ZM2550.08 112.5H2571.83V134.25H2550.08V112.5ZM2571.83 134.25H2593.58V156H2571.83V134.25ZM2550.08 134.25H2571.83V156H2550.08V134.25ZM2571.83 156H2593.58V177.75H2571.83V156ZM2571.83 286.5H2593.58V308.25H2571.83V286.5ZM2571.83 264.75H2593.58V286.5H2571.83V264.75ZM2571.83 243H2593.58V264.75H2571.83V243ZM2571.83 221.25H2593.58V243H2571.83V221.25ZM2571.83 199.5H2593.58V221.25H2571.83V199.5ZM2571.83 177.75H2593.58V199.5H2571.83V177.75ZM2550.08 286.5H2571.83V308.25H2550.08V286.5ZM2550.08 308.25H2571.83V330H2550.08V308.25ZM2528.33 308.25H2550.08V330H2528.33V308.25ZM2528.33 286.5H2550.08V308.25H2528.33V286.5ZM2506.58 308.25H2528.33V330H2506.58V308.25ZM2484.83 308.25H2506.58V330H2484.83V308.25ZM2484.83 286.5H2506.58V308.25H2484.83V286.5ZM2506.58 286.5H2528.33V308.25H2506.58V286.5ZM2484.83 264.75H2506.58V286.5H2484.83V264.75ZM2463.08 286.5H2484.83V308.25H2463.08V286.5ZM2463.08 264.75H2484.83V286.5H2463.08V264.75ZM2463.08 243H2484.83V264.75H2463.08V243ZM2463.08 221.25H2484.83V243H2463.08V221.25ZM2463.08 199.5H2484.83V221.25H2463.08V199.5ZM2463.08 177.75H2484.83V199.5H2463.08V177.75ZM2463.08 156H2484.83V177.75H2463.08V156ZM2484.83 156H2506.58V177.75H2484.83V156ZM2463.08 134.25H2484.83V156H2463.08V134.25ZM2484.83 177.75H2506.58V199.5H2484.83V177.75ZM2484.83 199.5H2506.58V221.25H2484.83V199.5ZM2484.83 221.25H2506.58V243H2484.83V221.25ZM2484.83 243H2506.58V264.75H2484.83V243ZM2550.08 156H2571.83V177.75H2550.08V156ZM2550.08 177.75H2571.83V199.5H2550.08V177.75ZM2550.08 199.5H2571.83V221.25H2550.08V199.5ZM2550.08 221.25H2571.83V243H2550.08V221.25ZM2550.08 243H2571.83V264.75H2550.08V243ZM2550.08 264.75H2571.83V286.5H2550.08V264.75Z" fill="white"/>
</svg>
