<svg width="614" height="944" viewBox="0 0 614 944" fill="none" xmlns="http://www.w3.org/2000/svg">
<path d="M103 700.999C103 587.781 194.781 496 307.999 496C421.217 496 512.998 587.781 512.998 700.999V944H103V700.999Z" fill="#674141"/>
<path d="M470.413 384.933C470.413 487.37 397.12 570.411 306.709 570.411C216.298 570.411 143.006 487.37 143.006 384.933C143.006 282.497 152.145 243.002 305.096 249.454C449.983 244.347 470.413 282.497 470.413 384.933Z" fill="white"/>
<path d="M123.649 308.59C139.509 308.859 147.842 343.804 147.842 343.804L145.154 414.769C145.154 414.769 118.812 416.383 105.37 409.93C105.37 409.93 79.0271 392.997 80.1024 370.953C81.1776 348.909 99.9941 310.204 123.649 308.59Z" fill="white"/>
<path d="M488.693 308.592C472.833 308.861 464.5 343.806 464.5 343.806L467.188 414.771C467.188 414.771 493.53 416.385 506.972 409.932C506.972 409.932 533.315 392.999 532.239 370.955C531.164 348.911 512.348 310.206 488.693 308.592Z" fill="white"/>
<path d="M470.413 101.878C470.413 158.144 490.304 313.43 309.129 244.346C108.33 332.515 145.156 158.144 145.156 101.878C145.156 45.6124 220.054 0 309.129 0C398.204 0 470.413 45.6124 470.413 101.878Z" fill="#48234F"/>
<path d="M499.982 277.14H114.781C114.781 277.14 76.8794 266.388 79.8363 221.497C79.8363 221.497 87.3629 177.144 120.964 177.144C154.565 177.144 252.679 241.926 302.677 241.389C352.675 240.851 455.091 177.144 492.186 177.144C529.282 177.144 534.12 221.497 534.12 221.497C533.582 263.7 499.982 277.14 499.982 277.14Z" fill="#48234F"/>
<path d="M274.369 492.014C277.507 492.185 280.647 491.939 283.732 491.283L290.771 489.822C292.234 489.511 293.691 489.386 295.088 489.557L298.607 490.021L302.127 490.42C305.299 490.806 308.486 490.78 311.623 490.221L315.076 489.557L318.463 488.959C320.655 488.568 322.861 488.211 325.037 487.896L328.49 487.432L331.943 486.9C333.311 486.706 334.85 486.707 336.592 486.967L340.377 487.564L344.162 488.096L347.881 488.229C349.212 488.086 351.408 487.616 353.393 485.971C358.435 481.767 356.532 475.886 355.916 474.35L354.787 471.561L353.725 468.838C351.891 464.281 348.222 461.393 344.029 460.072L337.521 458.08C337.317 458.016 336.748 457.746 335.928 456.686L333.404 453.498L330.947 450.244C328.072 446.529 323.721 443.675 318.131 443.869L314.811 443.936L311.557 444.068C307.82 444.205 304.353 445.375 301.197 447.256L298.076 449.049L295.021 450.908C294.95 450.911 294.738 450.871 294.357 450.775L286.389 448.783C281.236 447.481 275.956 448.48 271.779 452.303L268.99 454.893L266.201 457.416C264.157 459.29 262.282 461.191 260.623 463.061L258.432 465.451L256.307 467.908C254.243 470.234 250.69 475.578 253.85 481.654L255.709 485.107L258.232 488.428C261.178 490.985 264.982 491.491 267.197 491.615L274.369 492.014ZM272.775 474.947L273.307 474.35C274.52 472.982 276.005 471.51 277.689 469.967L280.479 467.377L282.67 465.385L286.189 466.248L290.174 467.244C294.673 468.381 299.442 468.07 303.721 465.518L306.775 463.658L309.896 461.799C310.82 461.253 311.549 461.094 312.154 461.068L315.475 460.936L317.6 460.869L319.99 463.857L322.447 467.111C323.454 468.412 324.642 469.578 325.9 470.631L322.646 471.096C320.272 471.439 317.861 471.799 315.475 472.225L312.088 472.822L308.635 473.486C307.189 473.744 305.704 473.737 304.186 473.553L300.666 473.154L297.146 472.689C293.846 472.287 290.513 472.461 287.252 473.154L283.732 473.885L280.146 474.682C278.52 475.025 276.908 475.168 275.299 475.08L272.775 474.947Z" fill="#D0193D"/>
<ellipse cx="306.711" cy="386.546" rx="63.1696" ry="49.4607" fill="#D0193D"/>
<ellipse cx="306.441" cy="381.17" rx="10.2147" ry="5.91378" fill="white"/>
<ellipse cx="338.698" cy="368.536" rx="12.9027" ry="11.0211" fill="white"/>
<path d="M390.887 496.488L317.771 523.1V568.798L390.887 597.56C390.887 597.56 406.209 605.624 407.015 552.669C407.822 499.714 390.887 496.488 390.887 496.488Z" fill="#F1AC34"/>
<path d="M222.228 496.22L295.344 522.832V568.529L222.228 597.292C222.228 597.292 206.906 605.356 206.1 552.401C205.293 499.445 222.228 496.22 222.228 496.22Z" fill="#3A79BC"/>
<rect x="279.021" y="519.337" width="56.4495" height="56.4497" rx="22" fill="#D0193D"/>
<path d="M50.2669 278.216L172.574 275.797L179.025 503.208C179.025 503.208 167.198 514.767 144.887 515.842C122.576 516.918 106.985 494.875 106.985 494.875C106.985 494.875 103.759 498.101 80.3733 497.295C56.9871 496.488 39.5146 475.521 39.2458 464.5C38.977 453.479 47.8476 437.35 47.8476 437.35C47.8476 437.35 0 413.427 0 377.944C0 342.461 47.8476 336.816 47.8476 336.816C47.8476 336.816 19.3541 309.398 23.655 293.269C30.9128 278.216 50.2669 278.216 50.2669 278.216Z" fill="#D0193D"/>
<path d="M563.153 278.216L440.846 275.797L434.394 503.208C434.394 503.208 446.222 514.767 468.533 515.842C490.844 516.918 506.435 494.875 506.435 494.875C506.435 494.875 509.66 498.101 533.047 497.295C556.433 496.488 573.905 475.521 574.174 464.5C574.443 453.479 565.572 437.35 565.572 437.35C565.572 437.35 613.42 413.427 613.42 377.944C613.42 342.461 565.572 336.816 565.572 336.816C565.572 336.816 594.066 309.398 589.765 293.269C582.507 278.216 563.153 278.216 563.153 278.216Z" fill="#D0193D"/>
<path d="M206.176 341.413C206.176 341.413 235.476 333.911 232.519 308.827C236.282 333.208 261.281 331.333 269.883 333.208C257.964 335.056 241.346 327.344 243.177 363.23C243.271 364.252 243.271 364.857 243.271 364.857C243.236 364.305 243.205 363.763 243.177 363.23C242.583 356.753 238.218 333.516 206.176 341.413Z" fill="#48234F"/>
<path d="M411.273 341.648C411.273 341.648 381.973 334.146 384.93 309.062C381.167 333.443 356.168 331.567 347.566 333.443C359.486 335.291 376.103 327.578 374.272 363.465C374.178 364.486 374.178 365.091 374.178 365.091C374.213 364.539 374.245 363.997 374.272 363.465C374.866 356.987 379.231 333.75 411.273 341.648Z" fill="#48234F"/>
<path d="M191.5 304.001C191.5 304.001 211 283.501 233.5 292.001C256 300.501 288 310.501 288 310.501" stroke="#D0193D" stroke-width="6"/>
<path d="M429.498 304.064C429.498 304.064 409.998 283.564 387.498 292.064C364.998 300.564 332.998 310.564 332.998 310.564" stroke="#D0193D" stroke-width="6"/>
</svg>
