<svg width="614" height="944" viewBox="0 0 614 944" fill="none" xmlns="http://www.w3.org/2000/svg">
<path d="M103 701C103 587.782 194.782 496 308 496C421.218 496 513 587.782 513 701V944H103V701Z" fill="#674141"/>
<path d="M470.414 384.933C470.414 487.37 397.121 570.411 306.71 570.411C216.299 570.411 143.006 487.37 143.006 384.933C143.006 282.497 152.145 243.002 305.097 249.454C449.985 244.347 470.414 282.497 470.414 384.933Z" fill="white"/>
<path d="M123.649 308.59C139.509 308.859 147.842 343.804 147.842 343.804L145.154 414.769C145.154 414.769 118.812 416.383 105.37 409.931C105.37 409.931 79.0271 392.997 80.1024 370.953C81.1776 348.909 99.9942 310.204 123.649 308.59Z" fill="white"/>
<path d="M488.694 308.592C472.835 308.861 464.502 343.806 464.502 343.806L467.19 414.771C467.19 414.771 493.531 416.385 506.973 409.932C506.973 409.932 533.317 392.999 532.241 370.955C531.166 348.911 512.35 310.206 488.694 308.592Z" fill="white"/>
<path d="M470.414 101.878C470.414 158.144 490.306 313.43 309.13 244.347C108.33 332.516 145.156 158.144 145.156 101.878C145.156 45.6125 220.054 0 309.13 0C398.205 0 470.414 45.6125 470.414 101.878Z" fill="#48234F"/>
<path d="M499.983 277.141H114.781C114.781 277.141 76.8794 266.389 79.8363 221.498C79.8363 221.498 87.3629 177.145 120.964 177.145C154.565 177.145 252.68 241.927 302.678 241.39C352.677 240.852 455.092 177.145 492.188 177.145C529.283 177.145 534.122 221.498 534.122 221.498C533.584 263.701 499.983 277.141 499.983 277.141Z" fill="#48234F"/>
<path d="M199.348 358.392L197.74 350.045L181.047 353.262L182.655 361.608L191.002 360L199.348 358.392ZM191.021 360.098L199.329 361.894L199.696 360.196L199.367 358.49L191.021 360.098ZM189.496 367.152L181.188 365.357L189.496 367.152ZM196.131 397.904L187.794 396.247H187.794L196.131 397.904ZM195.294 405.259L186.798 405.004L195.294 405.259ZM198.03 418.984L203.557 412.525L198.03 418.984ZM204.169 424.236L198.643 430.695L204.169 424.236ZM208.478 430.059L200.553 433.133L208.478 430.059ZM210.958 436.453L218.883 433.38L210.958 436.453ZM213.203 443.092L221.362 440.71L213.203 443.092ZM215.212 449.976L207.053 452.358L215.212 449.976ZM218.667 455.951L212.558 461.861L218.667 455.951ZM223.567 461.015L229.676 455.105L223.567 461.015ZM228.114 466.409L234.97 461.383L228.114 466.409ZM232.309 472.131L239.164 467.105L232.309 472.131ZM237.107 477.33L231.543 483.756L237.107 477.33ZM239.807 479.668L245.372 473.243L239.807 479.668ZM248.936 484.799L249.963 476.362L248.936 484.799ZM256.39 485.707L255.362 494.145L256.39 485.707ZM262.918 488.513L268.383 482.002L262.918 488.513ZM265.719 490.864L260.255 497.374L265.719 490.864ZM268.521 493.215L273.985 486.705L268.521 493.215ZM274.681 496.93L271.484 504.806L274.681 496.93ZM281.4 499.657L284.597 491.782L281.4 499.657ZM288.456 499.317L292.013 507.037L288.456 499.317ZM292.154 497.613L288.597 489.894L292.154 497.613ZM295.851 495.91L299.409 503.63L295.851 495.91ZM302.989 495.239L300.545 503.38L302.989 495.239ZM306.43 496.272L308.874 488.131L306.43 496.272ZM309.871 497.305L312.315 489.164L309.871 497.305ZM316.906 499.15L315.032 507.441L316.906 499.15ZM324.094 500.775L325.968 492.484L324.094 500.775ZM331.293 501.082L330.113 492.664L331.293 501.082ZM334.898 500.576L336.079 508.994L334.898 500.576ZM338.503 500.07L339.684 508.488L338.503 500.07ZM345.147 497.447L340.288 490.473L345.147 497.447ZM351.226 493.211L346.367 486.237L351.226 493.211ZM356.619 488.237L363.179 493.642L356.619 488.237ZM361.326 482.525L354.766 477.12L361.326 482.525ZM367.684 479.302L368.46 487.766L367.684 479.302ZM371.689 478.935L370.913 470.47L371.689 478.935ZM375.694 478.567L376.47 487.032L375.694 478.567ZM382.479 475.872L377.022 469.355L382.479 475.872ZM388.04 471.215L393.497 477.732L388.04 471.215ZM393.139 466.095L399.678 471.525L393.139 466.095ZM397.777 460.511L391.238 455.08L397.777 460.511ZM400.475 453.823L392.015 452.998L400.475 453.823ZM404.412 439.587L410.138 445.868L404.412 439.587ZM410.005 434.487L404.278 428.206L410.005 434.487ZM412.939 428.238L421.433 428.555L412.939 428.238ZM413.215 420.839L404.721 420.522L413.215 420.839ZM415.302 414.049L408.111 409.516L415.302 414.049ZM417.25 410.958L424.441 415.491L417.25 410.958ZM419.199 407.867L412.008 403.335L419.199 407.867ZM420.949 401.141L429.436 400.678L420.949 401.141ZM420.552 393.87L412.065 394.333L420.552 393.87ZM422.165 386.944L414.718 382.846L422.165 386.944ZM425.786 380.363L433.233 384.461L425.786 380.363ZM426.21 373.437L434.152 370.408L426.21 373.437ZM424.823 369.802L416.881 372.832L424.823 369.802ZM423.436 366.167L415.494 369.196L423.436 366.167ZM422.537 361.898L429.269 367.087L422.537 361.898ZM423.025 361.266L416.449 355.88L416.369 355.977L416.292 356.077L423.025 361.266ZM423.981 360.098L430.557 365.484L431.91 363.831L432.322 361.735L423.981 360.098ZM432.341 361.637L433.978 353.296L417.297 350.022L415.659 358.363L424 360L432.341 361.637ZM191.002 360L182.655 361.608L182.674 361.706L191.021 360.098L199.367 358.49L199.348 358.392L191.002 360ZM191.021 360.098L182.713 358.303L181.188 365.357L189.496 367.152L197.805 368.948L199.329 361.894L191.021 360.098ZM189.496 367.152L181.188 365.357C180.023 370.749 179.713 377.52 183.958 382.747L190.556 377.389L197.155 372.031C197.571 372.544 197.504 372.845 197.454 372.363C197.399 371.828 197.416 370.747 197.805 368.948L189.496 367.152ZM190.556 377.389L183.958 382.747L186.543 385.93L193.141 380.572L199.739 375.213L197.155 372.031L190.556 377.389ZM193.141 380.572L186.543 385.93L189.127 389.113L195.726 383.754L202.324 378.396L199.739 375.213L193.141 380.572ZM195.726 383.754L189.127 389.113C189.246 389.259 189.295 389.346 189.308 389.369C189.319 389.39 189.3 389.36 189.28 389.284C189.259 389.207 189.246 389.121 189.244 389.038C189.241 388.958 189.25 388.919 189.247 388.936L197.584 390.593L205.921 392.249C206.951 387.063 205.46 382.258 202.324 378.396L195.726 383.754ZM197.584 390.593L189.247 388.936L188.521 392.592L196.858 394.248L205.195 395.904L205.921 392.249L197.584 390.593ZM196.858 394.248L188.521 392.592L187.794 396.247L196.131 397.904L204.469 399.56L205.195 395.904L196.858 394.248ZM196.131 397.904L187.794 396.247C187.219 399.143 186.886 402.063 186.798 405.004L195.294 405.259L203.79 405.514C203.85 403.521 204.076 401.538 204.469 399.56L196.131 397.904ZM195.294 405.259L186.798 405.004L186.687 408.703L195.183 408.958L203.679 409.213L203.79 405.514L195.294 405.259ZM195.183 408.958L186.687 408.703L186.576 412.403L195.072 412.658L203.568 412.913L203.679 409.213L195.183 408.958ZM195.072 412.658L186.576 412.403C186.417 417.698 188.707 422.193 192.504 425.442L198.03 418.984L203.557 412.525C203.429 412.416 203.381 412.355 203.379 412.352C203.378 412.352 203.413 412.398 203.456 412.489C203.499 412.581 203.532 412.683 203.551 412.779C203.57 412.873 203.568 412.924 203.568 412.913L195.072 412.658ZM198.03 418.984L192.504 425.442L195.573 428.068L201.1 421.61L206.626 415.152L203.557 412.525L198.03 418.984ZM201.1 421.61L195.573 428.068L198.643 430.695L204.169 424.236L209.695 417.778L206.626 415.152L201.1 421.61ZM204.169 424.236L198.643 430.695C199.812 431.695 200.318 432.526 200.553 433.133L208.478 430.059L216.403 426.986C214.985 423.331 212.618 420.279 209.695 417.778L204.169 424.236ZM208.478 430.059L200.553 433.133L201.793 436.33L209.718 433.256L217.643 430.183L216.403 426.986L208.478 430.059ZM209.718 433.256L201.793 436.33L203.033 439.527L210.958 436.453L218.883 433.38L217.643 430.183L209.718 433.256ZM210.958 436.453L203.033 439.527C203.768 441.421 204.438 443.403 205.043 445.474L213.203 443.092L221.362 440.71C220.627 438.192 219.801 435.748 218.883 433.38L210.958 436.453ZM213.203 443.092L205.043 445.474L206.048 448.916L214.207 446.534L222.367 444.152L221.362 440.71L213.203 443.092ZM214.207 446.534L206.048 448.916L207.053 452.358L215.212 449.976L223.372 447.594L222.367 444.152L214.207 446.534ZM215.212 449.976L207.053 452.358C208.102 455.953 209.947 459.162 212.558 461.861L218.667 455.951L224.776 450.04C224.12 449.362 223.662 448.588 223.372 447.594L215.212 449.976ZM218.667 455.951L212.558 461.861L215.008 464.393L221.117 458.483L227.226 452.573L224.776 450.04L218.667 455.951ZM221.117 458.483L215.008 464.393L217.458 466.926L223.567 461.015L229.676 455.105L227.226 452.573L221.117 458.483ZM223.567 461.015L217.458 466.926C218.821 468.335 220.088 469.837 221.259 471.434L228.114 466.409L234.97 461.383C233.345 459.167 231.58 457.073 229.676 455.105L223.567 461.015ZM228.114 466.409L221.259 471.434L223.357 474.295L230.212 469.27L237.067 464.244L234.97 461.383L228.114 466.409ZM230.212 469.27L223.357 474.295L225.454 477.156L232.309 472.131L239.164 467.105L237.067 464.244L230.212 469.27ZM232.309 472.131L225.454 477.156C227.231 479.581 229.264 481.783 231.543 483.756L237.107 477.33L242.671 470.904C241.349 469.759 240.183 468.495 239.164 467.105L232.309 472.131ZM237.107 477.33L231.543 483.756L234.243 486.094L239.807 479.668L245.372 473.243L242.671 470.904L237.107 477.33ZM239.807 479.668L234.243 486.094L236.944 488.432L242.508 482.007L248.072 475.581L245.372 473.243L239.807 479.668ZM242.508 482.007L236.944 488.432C240.09 491.157 243.835 492.741 247.908 493.237L248.936 484.799L249.963 476.362C249.067 476.252 248.527 475.975 248.072 475.581L242.508 482.007ZM248.936 484.799L247.908 493.237L251.635 493.691L252.663 485.253L253.691 476.816L249.963 476.362L248.936 484.799ZM252.663 485.253L251.635 493.691L255.362 494.145L256.39 485.707L257.418 477.27L253.691 476.816L252.663 485.253ZM256.39 485.707L255.362 494.145C256.259 494.254 256.882 494.544 257.454 495.023L262.918 488.513L268.383 482.002C265.219 479.347 261.491 477.766 257.418 477.27L256.39 485.707ZM262.918 488.513L257.454 495.023L260.255 497.374L265.719 490.864L271.184 484.353L268.383 482.002L262.918 488.513ZM265.719 490.864L260.255 497.374L263.056 499.726L268.521 493.215L273.985 486.705L271.184 484.353L265.719 490.864ZM268.521 493.215L263.056 499.726C265.597 501.859 268.415 503.56 271.484 504.806L274.681 496.93L277.878 489.054C276.469 488.482 275.179 487.707 273.985 486.705L268.521 493.215ZM274.681 496.93L271.484 504.806L274.843 506.17L278.04 498.294L281.237 490.418L277.878 489.054L274.681 496.93ZM278.04 498.294L274.843 506.17L278.202 507.533L281.4 499.657L284.597 491.782L281.237 490.418L278.04 498.294ZM281.4 499.657L278.202 507.533C282.897 509.439 287.705 509.023 292.013 507.037L288.456 499.317L284.899 491.597C284.507 491.778 284.368 491.767 284.434 491.764C284.462 491.763 284.505 491.764 284.552 491.772C284.598 491.78 284.615 491.789 284.597 491.782L281.4 499.657ZM288.456 499.317L292.013 507.037L295.711 505.333L292.154 497.613L288.597 489.894L284.899 491.597L288.456 499.317ZM292.154 497.613L295.711 505.333L299.409 503.63L295.851 495.91L292.294 488.19L288.597 489.894L292.154 497.613ZM295.851 495.91L299.409 503.63C300.26 503.237 300.502 503.367 300.545 503.38L302.989 495.239L305.434 487.098C300.889 485.734 296.373 486.31 292.294 488.19L295.851 495.91ZM302.989 495.239L300.545 503.38L303.986 504.413L306.43 496.272L308.874 488.131L305.434 487.098L302.989 495.239ZM306.43 496.272L303.986 504.413L307.427 505.446L309.871 497.305L312.315 489.164L308.874 488.131L306.43 496.272ZM309.871 497.305L307.427 505.446C309.914 506.192 312.449 506.857 315.032 507.441L316.906 499.15L318.78 490.859C316.57 490.36 314.416 489.794 312.315 489.164L309.871 497.305ZM316.906 499.15L315.032 507.441L318.626 508.253L320.5 499.962L322.374 491.671L318.78 490.859L316.906 499.15ZM320.5 499.962L318.626 508.253L322.22 509.066L324.094 500.775L325.968 492.484L322.374 491.671L320.5 499.962ZM324.094 500.775L322.22 509.066C325.606 509.831 329.04 509.981 332.474 509.499L331.293 501.082L330.113 492.664C328.739 492.856 327.374 492.802 325.968 492.484L324.094 500.775ZM331.293 501.082L332.474 509.499L336.079 508.994L334.898 500.576L333.718 492.158L330.113 492.664L331.293 501.082ZM334.898 500.576L336.079 508.994L339.684 508.488L338.503 500.07L337.323 491.653L333.718 492.158L334.898 500.576ZM338.503 500.07L339.684 508.488C343.434 507.962 346.905 506.582 350.007 504.421L345.147 497.447L340.288 490.473C339.337 491.135 338.379 491.505 337.323 491.653L338.503 500.07ZM345.147 497.447L350.007 504.421L353.046 502.303L348.187 495.329L343.327 488.355L340.288 490.473L345.147 497.447ZM348.187 495.329L353.046 502.303L356.086 500.185L351.226 493.211L346.367 486.237L343.327 488.355L348.187 495.329ZM351.226 493.211L356.086 500.185C358.747 498.33 361.117 496.145 363.179 493.642L356.619 488.237L350.059 482.832C348.983 484.137 347.758 485.268 346.367 486.237L351.226 493.211ZM356.619 488.237L363.179 493.642L365.532 490.786L358.972 485.381L352.413 479.976L350.059 482.832L356.619 488.237ZM358.972 485.381L365.532 490.786L367.886 487.93L361.326 482.525L354.766 477.12L352.413 479.976L358.972 485.381ZM361.326 482.525L367.886 487.93C367.908 487.904 367.923 487.887 367.933 487.878C367.937 487.873 367.941 487.87 367.943 487.868C367.944 487.867 367.945 487.867 367.945 487.866C367.946 487.866 367.946 487.866 367.946 487.866C367.946 487.866 367.946 487.866 367.945 487.866C367.945 487.866 367.944 487.867 367.944 487.867C367.942 487.868 367.941 487.869 367.939 487.87C367.936 487.873 367.934 487.873 367.935 487.873C367.936 487.872 367.967 487.857 368.042 487.836C368.119 487.814 368.254 487.785 368.46 487.766L367.684 479.302L366.908 470.837C362.195 471.269 357.91 473.304 354.766 477.12L361.326 482.525ZM367.684 479.302L368.46 487.766L372.465 487.399L371.689 478.935L370.913 470.47L366.908 470.837L367.684 479.302ZM371.689 478.935L372.465 487.399L376.47 487.032L375.694 478.567L374.918 470.103L370.913 470.47L371.689 478.935ZM375.694 478.567L376.47 487.032C380.666 486.647 384.614 485.171 387.936 482.389L382.479 475.872L377.022 469.355C376.637 469.677 376.061 469.998 374.918 470.103L375.694 478.567ZM382.479 475.872L387.936 482.389L390.717 480.06L385.26 473.543L379.802 467.027L377.022 469.355L382.479 475.872ZM385.26 473.543L390.717 480.06L393.497 477.732L388.04 471.215L382.583 464.698L379.802 467.027L385.26 473.543ZM388.04 471.215L393.497 477.732C395.744 475.851 397.805 473.78 399.678 471.525L393.139 466.095L386.6 460.664C385.381 462.132 384.044 463.475 382.583 464.698L388.04 471.215ZM393.139 466.095L399.678 471.525L401.997 468.734L395.458 463.303L388.919 457.872L386.6 460.664L393.139 466.095ZM395.458 463.303L401.997 468.734L404.316 465.942L397.777 460.511L391.238 455.08L388.919 457.872L395.458 463.303ZM397.777 460.511L404.316 465.942C407.034 462.668 408.53 458.799 408.935 454.648L400.475 453.823L392.015 452.998C391.914 454.042 391.611 454.631 391.238 455.08L397.777 460.511ZM400.475 453.823L408.935 454.648L409.315 450.753L400.855 449.928L392.395 449.103L392.015 452.998L400.475 453.823ZM400.855 449.928L409.315 450.753L409.695 446.857L401.235 446.032L392.775 445.207L392.395 449.103L400.855 449.928ZM401.235 446.032L409.695 446.857C409.752 446.276 409.887 446.098 410.138 445.868L404.412 439.587L398.685 433.306C395.208 436.476 393.225 440.595 392.775 445.207L401.235 446.032ZM404.412 439.587L410.138 445.868L412.935 443.318L407.208 437.037L401.481 430.756L398.685 433.306L404.412 439.587ZM407.208 437.037L412.935 443.318L415.732 440.768L410.005 434.487L404.278 428.206L401.481 430.756L407.208 437.037ZM410.005 434.487L415.732 440.768C419.239 437.571 421.254 433.357 421.433 428.555L412.939 428.238L404.445 427.921C404.441 428.019 404.431 428.065 404.43 428.07C404.429 428.073 404.433 428.058 404.443 428.037C404.453 428.016 404.457 428.014 404.441 428.034C404.425 428.056 404.378 428.115 404.278 428.206L410.005 434.487ZM412.939 428.238L421.433 428.555L421.571 424.856L413.077 424.539L404.583 424.222L404.445 427.921L412.939 428.238ZM413.077 424.539L421.571 424.856L421.709 421.156L413.215 420.839L404.721 420.522L404.583 424.222L413.077 424.539ZM413.215 420.839L421.709 421.156C421.746 420.165 422.002 419.359 422.492 418.582L415.302 414.049L408.111 409.516C406.003 412.86 404.868 416.581 404.721 420.522L413.215 420.839ZM415.302 414.049L422.492 418.582L424.441 415.491L417.25 410.958L410.06 406.426L408.111 409.516L415.302 414.049ZM417.25 410.958L424.441 415.491L426.389 412.4L419.199 407.867L412.008 403.335L410.06 406.426L417.25 410.958ZM419.199 407.867L426.389 412.4C428.624 408.855 429.665 404.868 429.436 400.678L420.949 401.141L412.461 401.604C412.497 402.261 412.371 402.759 412.008 403.335L419.199 407.867ZM420.949 401.141L429.436 400.678L429.238 397.043L420.751 397.506L412.263 397.968L412.461 401.604L420.949 401.141ZM420.751 397.506L429.238 397.043L429.04 393.407L420.552 393.87L412.065 394.333L412.263 397.968L420.751 397.506ZM420.552 393.87L429.04 393.407C428.997 392.623 429.146 391.889 429.612 391.042L422.165 386.944L414.718 382.846C412.77 386.387 411.844 390.27 412.065 394.333L420.552 393.87ZM422.165 386.944L429.612 391.042L431.423 387.752L423.976 383.654L416.529 379.556L414.718 382.846L422.165 386.944ZM423.976 383.654L431.423 387.752L433.233 384.461L425.786 380.363L418.339 376.265L416.529 379.556L423.976 383.654ZM425.786 380.363L433.233 384.461C435.693 379.991 435.93 375.068 434.152 370.408L426.21 373.437L418.268 376.467C418.313 376.585 418.32 376.634 418.318 376.622C418.315 376.606 418.308 376.551 418.313 376.467C418.319 376.383 418.334 376.31 418.349 376.258C418.364 376.208 418.37 376.21 418.339 376.265L425.786 380.363ZM426.21 373.437L434.152 370.408L432.765 366.772L424.823 369.802L416.881 372.832L418.268 376.467L426.21 373.437ZM424.823 369.802L432.765 366.772L431.378 363.137L423.436 366.167L415.494 369.196L416.881 372.832L424.823 369.802ZM423.436 366.167L431.378 363.137C431.188 362.64 431.053 362.251 430.959 361.958C430.862 361.653 430.834 361.523 430.835 361.529C430.837 361.538 430.854 361.62 430.872 361.762C430.888 361.897 430.914 362.161 430.909 362.519C430.905 362.861 430.87 363.449 430.688 364.175C430.506 364.897 430.121 365.982 429.269 367.087L422.537 361.898L415.804 356.71C414.04 358.998 413.923 361.421 413.911 362.285C413.896 363.396 414.061 364.372 414.2 365.034C414.486 366.392 414.976 367.837 415.494 369.196L423.436 366.167ZM422.537 361.898L429.269 367.087L429.757 366.454L423.025 361.266L416.292 356.077L415.804 356.71L422.537 361.898ZM423.025 361.266L429.601 366.651L430.557 365.484L423.981 360.098L417.405 354.712L416.449 355.88L423.025 361.266ZM423.981 360.098L432.322 361.735L432.341 361.637L424 360L415.659 358.363L415.64 358.461L423.981 360.098Z" fill="#D0193D"/>
<ellipse cx="306.711" cy="386.546" rx="63.1699" ry="49.4607" fill="#D0193D"/>
<ellipse cx="306.441" cy="381.17" rx="10.2147" ry="5.91378" fill="white"/>
<ellipse cx="338.698" cy="368.536" rx="12.9028" ry="11.0211" fill="white"/>
<path d="M390.889 496.488L317.773 523.1V568.798L390.889 597.56C390.889 597.56 406.211 605.624 407.018 552.669C407.824 499.714 390.889 496.488 390.889 496.488Z" fill="#F1AC34"/>
<path d="M222.228 496.22L295.344 522.832V568.529L222.228 597.292C222.228 597.292 206.906 605.356 206.099 552.401C205.293 499.445 222.228 496.22 222.228 496.22Z" fill="#3A79BC"/>
<rect x="279.023" y="519.337" width="56.4497" height="56.4497" rx="22" fill="#D0193D"/>
<path d="M50.2671 278.216L172.575 275.797L179.026 503.209C179.026 503.209 167.199 514.767 144.888 515.843C122.577 516.918 106.986 494.876 106.986 494.876C106.986 494.876 103.76 498.101 80.3736 497.295C56.9873 496.488 39.5148 475.521 39.246 464.5C38.9772 453.479 47.8478 437.351 47.8478 437.351C47.8478 437.351 0 413.427 0 377.944C0 342.461 47.8478 336.816 47.8478 336.816C47.8478 336.816 19.3542 309.398 23.6551 293.269C30.9129 278.216 50.2671 278.216 50.2671 278.216Z" fill="#D0193D"/>
<path d="M563.153 278.216L440.845 275.797L434.394 503.209C434.394 503.209 446.221 514.767 468.532 515.843C490.843 516.918 506.434 494.876 506.434 494.876C506.434 494.876 509.66 498.101 533.046 497.295C556.433 496.488 573.905 475.521 574.174 464.5C574.443 453.479 565.572 437.351 565.572 437.351C565.572 437.351 613.42 413.427 613.42 377.944C613.42 342.461 565.572 336.816 565.572 336.816C565.572 336.816 594.066 309.398 589.765 293.269C582.507 278.216 563.153 278.216 563.153 278.216Z" fill="#D0193D"/>
<path d="M204.832 324.183C204.832 324.183 234.132 315.581 231.175 286.818C234.939 314.774 259.938 312.624 268.54 314.774C256.62 316.893 240.002 308.05 241.834 349.199C241.928 350.37 241.928 351.063 241.928 351.063C241.892 350.431 241.861 349.809 241.834 349.199C241.239 341.772 236.874 315.127 204.832 324.183Z" fill="#48234F"/>
<path d="M409.932 324.451C409.932 324.451 380.632 315.849 383.588 287.087C379.825 315.043 354.826 312.892 346.224 315.043C358.144 317.162 374.761 308.319 372.93 349.467C372.836 350.639 372.836 351.332 372.836 351.332C372.871 350.699 372.903 350.078 372.93 349.467C373.524 342.04 377.889 315.396 409.932 324.451Z" fill="#48234F"/>
</svg>
