<svg width="1666" height="1117" viewBox="0 0 1666 1117" fill="none" xmlns="http://www.w3.org/2000/svg">
<path d="M594.159 -1474L533.337 -24.0323L819.341 -1474H958.753L544.38 -20.5934L1219.12 -1474H1376.18L1387.54 -1466.65L554.246 -14.0842L1595.49 -1287.75L1666 -1208.76V-1128.91L562.267 -4.93948L1666 -793.38V-628.297L567.901 6.21902L1666 -382.716V-249.112L570.765 18.6262L1666 -36.5611V88.4222L570.657 31.4302L1666 301.083V434.814L567.591 43.777L1666 680.764V846.172L561.77 54.8146L1489.16 1002H1318.33L553.596 63.7888L1248 1364.76L1264 1872.2L543.622 70.0942L1305 2658.18L995.5 3031.02L532.52 73.3018L712.5 3031.02L418 3181.46L521.07 73.1866L-105 3348.44L-382.5 3377.95L510.027 69.7585L-596.5 2775.51L-757.5 2386.11L500.156 63.255L-830 1726.81L-811 1418.75L492.125 54.1155L-696 904.22V727.472L486.481 42.9627L-696 462.859V319.939L483.612 30.5607L-696 90.9643L-696 -42.663L484.085 17.768L-696 -273.762V-416.814L486.796 5.33864L-696 -681.823V-858.917L492.622 -5.69334L-646.078 -1170.43L-537.987 -1290.98L500.806 -14.662L-329.575 -1469.19L-322.1 -1474H-160.156L510.785 -20.9568L99.6692 -1474H238.899L521.877 -24.1535L463.934 -1474L594.159 -1474Z" fill="white" fill-opacity="0.07"/>
</svg>
